# Blender v2.76 (sub 0) OBJ File: 'PlatypusAssets.blend'
# www.blender.org
mtllib PlatypusShip.mtl
o Cube
v 0.181616 -0.975016 -0.183449
v 1.000000 -0.325681 -0.009647
v 0.750000 -0.893356 -0.031647
v 0.750000 -0.325681 -1.997584
v 0.750000 -0.325681 0.750000
v 0.750000 0.607096 0.008928
v 0.555556 -0.755528 -1.686473
v 0.555555 -0.755528 0.555556
v 0.555556 0.355583 -1.131506
v 0.555555 0.358838 0.555556
v 0.750000 1.275301 0.138689
v 0.555556 0.839392 -0.685699
v 0.555555 1.371286 0.679478
v 0.181615 -0.325681 0.939461
v 0.181616 -0.332562 -3.389534
v 0.134530 -0.859980 -2.294793
v 0.134530 -0.859980 0.702914
v 0.134530 0.545849 -1.317577
v 0.134530 0.562650 0.702915
v 0.181615 1.472031 0.127498
v 0.134530 1.029658 -0.871770
v 0.134530 1.561551 0.826837
v 0.784213 2.368518 0.905063
v 1.142936 2.685863 1.655063
v 1.253712 2.609327 1.607978
v 0.965829 2.297839 0.908639
v 0.875000 -0.609518 -0.020647
v 0.652778 -0.540605 -1.842029
v 0.652778 -0.540605 0.652778
v 0.200522 -0.673596 -2.842164
v 0.158073 -0.592831 0.821188
v 2.245220 -1.014114 0.166203
v 1.120875 -0.459999 -1.864158
v 2.018740 -1.022578 0.824861
v 1.023653 -0.674923 -1.708602
v 1.974236 -1.133530 0.758811
v 2.157989 -1.198636 0.176042
v 0.938184 -0.095038 -0.005054
v 0.854850 0.215887 0.001137
v 0.701921 -0.157228 -1.783434
v 0.637106 0.069860 -1.494741
v 0.701921 -0.156423 0.701921
v 0.637106 0.071749 0.637106
v 0.154278 0.177441 -2.186560
v 0.169973 -0.115362 -2.877212
v 0.169973 -0.106028 0.880972
v 0.154277 0.190083 0.802123
v 0.000000 -1.001109 -0.231954
v -0.181616 -0.975016 -0.183449
v -1.000000 -0.325681 -0.009647
v 0.000000 -0.325681 1.000000
v 0.000000 -0.325681 -3.834303
v -0.750000 -0.893356 -0.031647
v 0.000000 -0.893356 -2.489169
v -0.750000 -0.325681 -1.997584
v 0.000000 -0.893356 0.750000
v -0.750000 -0.325681 0.750000
v -0.750000 0.607096 0.008928
v 0.000000 0.606644 -1.377032
v 0.000000 0.617862 0.750000
v -0.555556 -0.755528 -1.686473
v -0.555555 -0.755528 0.555556
v -0.555556 0.355583 -1.131506
v -0.555555 0.358838 0.555556
v 0.000000 1.542711 0.123923
v 0.000000 1.090454 -0.931226
v 0.000000 1.622347 0.873923
v -0.750000 1.275301 0.138689
v -0.555556 0.839392 -0.685699
v -0.555555 1.371286 0.679478
v -0.181615 -0.325681 0.939461
v -0.181616 -0.332562 -3.389534
v -0.134530 -0.859980 -2.294793
v -0.134530 -0.859980 0.702914
v -0.134530 0.545849 -1.317577
v -0.134530 0.562650 0.702915
v -0.181615 1.472031 0.127498
v -0.134530 1.029658 -0.871770
v -0.134530 1.561551 0.826837
v -0.784213 2.368518 0.905063
v -1.142936 2.685863 1.655063
v -1.253712 2.609327 1.607978
v -0.965829 2.297839 0.908639
v -0.875000 -0.609518 -0.020647
v 0.000000 -0.609518 0.875000
v 0.000000 -0.767026 -3.161736
v -0.652778 -0.540605 -1.842029
v -0.652778 -0.540605 0.652778
v -0.200522 -0.673596 -2.842164
v -0.158073 -0.592831 0.821188
v -2.245220 -1.014114 0.166203
v -1.120875 -0.459999 -1.864158
v -2.018740 -1.022578 0.824861
v -1.023653 -0.674923 -1.708602
v -1.974236 -1.133530 0.758811
v -2.157989 -1.198636 0.176042
v -0.938184 -0.095038 -0.005054
v -0.854850 0.215887 0.001137
v 0.000000 -0.092376 0.938184
v 0.000000 0.222138 0.854851
v 0.000000 -0.095150 -3.226706
v 0.000000 0.215625 -2.407616
v -0.701921 -0.157228 -1.783434
v -0.637106 0.069860 -1.494741
v -0.701921 -0.156423 0.701921
v -0.637106 0.071749 0.637106
v -0.154278 0.177441 -2.186560
v -0.169973 -0.115362 -2.877212
v -0.169973 -0.106028 0.880972
v -0.154277 0.190083 0.802123
vt 0.479033 0.533388
vt 0.576535 0.228572
vt 0.609662 0.336271
vt 0.553954 0.573788
vt 0.514550 0.654689
vt 0.447177 0.663174
vt 0.797236 0.147356
vt 0.898006 0.000186
vt 0.900772 0.099258
vt 0.851863 0.234178
vt 0.973068 0.000189
vt 0.997042 0.000186
vt 0.999814 0.099289
vt 0.975827 0.099309
vt 0.818739 0.300116
vt 0.893963 0.269467
vt 0.878411 0.415841
vt 0.818710 0.454338
vt 0.597440 0.592855
vt 0.647923 0.319465
vt 0.110916 0.260057
vt 0.130214 0.500215
vt 0.080959 0.445946
vt 0.043915 0.258295
vt 0.077434 0.154532
vt 0.129973 0.143203
vt 0.536589 0.685298
vt 0.459722 0.705882
vt 0.079741 0.067348
vt 0.017706 0.093393
vt 0.083110 0.622326
vt 0.019873 0.492023
vt 0.622795 0.153111
vt 0.938784 0.259953
vt 0.920181 0.504799
vt 0.963107 0.415305
vt 0.984499 0.310324
vt 0.807726 0.758779
vt 0.827507 0.868527
vt 0.443532 0.934708
vt 0.425153 0.942354
vt 0.966686 0.269095
vt 0.603923 0.097114
vt 0.565713 0.193878
vt 0.067932 0.660857
vt 0.000186 0.506389
vt 0.064600 0.042676
vt 0.000186 0.073331
vt 0.434924 0.712219
vt 0.425153 0.665759
vt 0.797237 0.309395
vt 0.797236 0.464466
vt 0.454332 0.519129
vt 0.465601 0.949136
vt 0.480322 0.919686
vt 0.558151 0.868527
vt 0.682803 0.867665
vt 0.445104 0.758407
vt 0.472581 0.748541
vt 0.678733 0.000186
vt 0.679898 0.073306
vt 0.687229 0.301955
vt 0.558205 0.717500
vt 0.200848 0.265847
vt 0.202711 0.128472
vt 0.378407 0.202062
vt 0.396940 0.280167
vt 0.696194 0.354656
vt 0.796865 0.683763
vt 0.397202 0.193218
vt 0.424781 0.280572
vt 0.284779 0.547649
vt 0.246732 0.534519
vt 0.239870 0.606918
vt 0.196234 0.574583
vt 0.746196 0.758407
vt 0.224505 0.087338
vt 0.153614 0.000186
vt 0.165486 0.031293
vt 0.129006 0.046624
vt 0.115738 0.018280
vt 0.157667 0.873691
vt 0.119564 0.782921
vt 0.131709 0.725166
vt 0.167628 0.801592
vt 0.168702 0.543371
vt 0.171929 0.134528
vt 0.162896 0.262893
vn 0.243700 -0.966500 -0.080500
vn 0.180500 -0.964100 0.195000
vn 0.965900 0.115700 -0.231700
vn 0.533800 0.573000 -0.621900
vn 0.278600 -0.117500 0.953200
vn 0.890500 -0.435200 -0.132600
vn 0.912300 0.359100 -0.196800
vn 0.872600 0.283100 0.398100
vn 0.826800 -0.443500 0.346000
vn 0.358900 -0.454400 0.815300
vn 0.405200 0.299000 0.864000
vn 0.578500 0.739200 -0.344800
vn 0.657800 -0.709600 -0.252400
vn 0.401800 0.803100 -0.440000
vn 0.355000 0.932200 -0.070300
vn 0.942600 -0.049800 0.330100
vn -0.015400 -0.584000 0.811600
vn 0.418700 0.829100 -0.370600
vn 0.571400 -0.801900 -0.174600
vn 0.558800 0.772100 -0.302900
vn 0.382200 0.246400 0.890600
vn 0.359100 -0.389800 0.848000
vn 0.282400 -0.117800 0.952000
vn 0.183000 -0.975600 0.121000
vn 0.223100 -0.973400 -0.052000
vn 0.330500 0.803000 -0.495900
vn 0.228300 0.545800 -0.806200
vn 0.653900 -0.749600 0.102400
vn -0.688500 0.724700 -0.027100
vn 0.310500 -0.395000 0.864600
vn 0.791900 -0.508400 -0.338300
vn 0.802400 -0.508300 -0.312600
vn 0.304500 -0.451300 0.838800
vn 0.464000 0.871100 0.161100
vn -0.400800 -0.916200 0.000200
vn 0.848600 -0.435500 0.300300
vn 0.665700 -0.526400 -0.529000
vn 0.066600 -0.604600 -0.793700
vn 0.458600 0.888000 -0.034400
vn -0.409600 -0.911600 -0.035100
vn -0.237800 -0.350500 0.905900
vn 0.316200 0.251100 0.914900
vn 0.342300 0.249400 0.905900
vn 0.665800 0.695200 -0.271000
vn 0.628600 0.724400 -0.283100
vn 0.688100 0.662800 -0.295300
vn 0.652200 0.690400 -0.312900
vn 0.315500 0.295500 0.901700
vn 0.350500 0.297200 0.888100
vn 0.906700 0.283200 0.312500
vn 0.894500 0.283400 0.345800
vn 0.936500 0.327100 -0.126300
vn 0.929000 0.338200 -0.150300
vn -0.243700 -0.966500 -0.080500
vn -0.180500 -0.964100 0.195000
vn -0.965900 0.115700 -0.231700
vn -0.533800 0.573000 -0.621900
vn -0.278600 -0.117500 0.953200
vn -0.890500 -0.435200 -0.132600
vn -0.912300 0.359100 -0.196800
vn -0.872600 0.283100 0.398100
vn -0.826800 -0.443500 0.346000
vn -0.358900 -0.454400 0.815300
vn -0.405200 0.299000 0.864000
vn -0.578500 0.739200 -0.344800
vn -0.657800 -0.709600 -0.252400
vn -0.401800 0.803100 -0.440000
vn -0.355000 0.932200 -0.070300
vn -0.942600 -0.049800 0.330100
vn 0.015400 -0.584000 0.811600
vn -0.418700 0.829100 -0.370600
vn -0.571400 -0.801900 -0.174600
vn -0.558800 0.772100 -0.302900
vn -0.382200 0.246400 0.890600
vn -0.359100 -0.389800 0.848000
vn -0.282400 -0.117800 0.952000
vn -0.183000 -0.975600 0.121000
vn -0.223100 -0.973400 -0.052000
vn -0.330500 0.803000 -0.495900
vn -0.228300 0.545800 -0.806200
vn -0.653900 -0.749600 0.102400
vn 0.688500 0.724700 -0.027100
vn -0.310500 -0.395000 0.864600
vn -0.791900 -0.508400 -0.338300
vn -0.802400 -0.508300 -0.312600
vn -0.304500 -0.451300 0.838800
vn -0.464000 0.871100 0.161100
vn 0.400800 -0.916200 0.000200
vn -0.848600 -0.435500 0.300300
vn -0.665700 -0.526400 -0.529000
vn -0.066600 -0.604600 -0.793700
vn -0.458600 0.888000 -0.034400
vn 0.409600 -0.911600 -0.035100
vn 0.237800 -0.350500 0.905900
vn -0.316200 0.251100 0.914900
vn -0.342300 0.249400 0.905900
vn -0.665800 0.695200 -0.271000
vn -0.628600 0.724400 -0.283100
vn -0.688100 0.662800 -0.295300
vn -0.652200 0.690400 -0.312900
vn -0.315500 0.295500 0.901700
vn -0.350500 0.297200 0.888100
vn -0.906700 0.283200 0.312500
vn -0.894500 0.283400 0.345800
vn -0.936500 0.327100 -0.126300
vn -0.929000 0.338200 -0.150300
usemtl Material
s off
f 1/1/1 16/2/1 7/3/1 3/4/1
f 1/1/2 3/4/2 8/5/2 17/6/2
f 6/7/3 9/8/3 12/9/3 11/10/3
f 18/11/4 59/12/4 66/13/4 21/14/4
f 19/15/5 10/16/5 13/17/5 22/18/5
f 27/19/6 3/4/6 7/3/6 28/20/6
f 39/21/7 41/22/7 9/23/7 6/24/7
f 39/21/8 6/24/8 10/25/8 43/26/8
f 27/19/9 29/27/9 8/5/9 3/4/9
f 31/28/10 17/6/10 8/5/10 29/27/10
f 47/29/11 43/26/11 10/25/11 19/30/11
f 44/31/12 18/32/12 9/23/12 41/22/12
f 30/33/13 28/20/13 7/3/13 16/2/13
f 20/34/14 11/10/14 12/9/14 21/14/14
f 20/35/15 22/18/15 13/17/15 11/36/15
f 10/16/16 6/37/16 11/36/16 13/17/16
f 67/38/17 22/39/17 25/40/17 24/41/17
f 65/42/18 20/34/18 21/14/18 66/13/18
f 86/43/19 30/33/19 16/2/19 54/44/19
f 102/45/20 59/46/20 18/32/20 44/31/20
f 100/47/21 47/29/21 19/30/21 60/48/21
f 85/49/22 56/50/22 17/6/22 31/28/22
f 60/51/23 19/15/23 22/18/23 67/52/23
f 9/8/4 18/11/4 21/14/4 12/9/4
f 48/53/24 1/1/24 17/6/24 56/50/24
f 48/53/25 54/44/25 16/2/25 1/1/25
f 23/54/26 24/41/26 25/40/26 26/55/26
f 20/56/27 65/57/27 23/54/27 26/55/27
f 22/39/28 20/56/28 26/55/28 25/40/28
f 65/57/29 67/38/29 24/41/29 23/54/29
f 51/58/30 85/49/30 31/28/30 14/59/30
f 52/60/31 15/61/31 30/33/31 86/43/31
f 15/61/32 4/62/32 28/20/32 30/33/32
f 14/59/33 31/28/33 29/27/33 5/63/33
f 2/64/34 5/65/34 34/66/34 32/67/34
f 27/19/35 28/20/35 35/68/35 37/69/35
f 32/67/36 34/66/36 36/70/36 37/71/36
f 32/67/37 37/71/37 35/72/37 33/73/37
f 28/74/38 4/75/38 33/73/38 35/72/38
f 4/75/39 2/64/39 32/67/39 33/73/39
f 29/27/40 27/19/40 37/69/40 36/76/40
f 5/65/41 29/77/41 36/70/41 34/66/41
f 51/78/42 14/79/42 46/80/42 99/81/42
f 99/81/43 46/80/43 47/29/43 100/47/43
f 52/82/44 101/83/44 45/84/44 15/85/44
f 101/83/45 102/45/45 44/31/45 45/84/45
f 15/85/46 45/84/46 40/86/46 4/75/46
f 45/84/47 44/31/47 41/22/47 40/86/47
f 14/79/48 5/65/48 42/87/48 46/80/48
f 46/80/49 42/87/49 43/26/49 47/29/49
f 2/64/50 38/88/50 42/87/50 5/65/50
f 38/88/51 39/21/51 43/26/51 42/87/51
f 2/64/52 4/75/52 40/86/52 38/88/52
f 38/88/53 40/86/53 41/22/53 39/21/53
f 49/1/54 53/4/54 61/3/54 73/2/54
f 49/1/55 74/6/55 62/5/55 53/4/55
f 58/7/56 68/10/56 69/9/56 63/8/56
f 75/11/57 78/14/57 66/13/57 59/12/57
f 76/15/58 79/18/58 70/17/58 64/16/58
f 84/19/59 87/20/59 61/3/59 53/4/59
f 98/21/60 58/24/60 63/23/60 104/22/60
f 98/21/61 106/26/61 64/25/61 58/24/61
f 84/19/62 53/4/62 62/5/62 88/27/62
f 90/28/63 88/27/63 62/5/63 74/6/63
f 110/29/64 76/30/64 64/25/64 106/26/64
f 107/31/65 104/22/65 63/23/65 75/32/65
f 89/33/66 73/2/66 61/3/66 87/20/66
f 77/34/67 78/14/67 69/9/67 68/10/67
f 77/35/68 68/36/68 70/17/68 79/18/68
f 64/16/69 70/17/69 68/36/69 58/37/69
f 67/38/70 81/41/70 82/40/70 79/39/70
f 65/42/71 66/13/71 78/14/71 77/34/71
f 86/43/72 54/44/72 73/2/72 89/33/72
f 102/45/73 107/31/73 75/32/73 59/46/73
f 100/47/74 60/48/74 76/30/74 110/29/74
f 85/49/75 90/28/75 74/6/75 56/50/75
f 60/51/76 67/52/76 79/18/76 76/15/76
f 63/8/57 69/9/57 78/14/57 75/11/57
f 48/53/77 56/50/77 74/6/77 49/1/77
f 48/53/78 49/1/78 73/2/78 54/44/78
f 80/54/79 83/55/79 82/40/79 81/41/79
f 77/56/80 83/55/80 80/54/80 65/57/80
f 79/39/81 82/40/81 83/55/81 77/56/81
f 65/57/82 80/54/82 81/41/82 67/38/82
f 51/58/83 71/59/83 90/28/83 85/49/83
f 52/60/84 86/43/84 89/33/84 72/61/84
f 72/61/85 89/33/85 87/20/85 55/62/85
f 71/59/86 57/63/86 88/27/86 90/28/86
f 50/64/87 91/67/87 93/66/87 57/65/87
f 84/19/88 96/69/88 94/68/88 87/20/88
f 91/67/89 96/71/89 95/70/89 93/66/89
f 91/67/90 92/73/90 94/72/90 96/71/90
f 87/74/91 94/72/91 92/73/91 55/75/91
f 55/75/92 92/73/92 91/67/92 50/64/92
f 88/27/93 95/76/93 96/69/93 84/19/93
f 57/65/94 93/66/94 95/70/94 88/77/94
f 51/78/95 99/81/95 109/80/95 71/79/95
f 99/81/96 100/47/96 110/29/96 109/80/96
f 52/82/97 72/85/97 108/84/97 101/83/97
f 101/83/98 108/84/98 107/31/98 102/45/98
f 72/85/99 55/75/99 103/86/99 108/84/99
f 108/84/100 103/86/100 104/22/100 107/31/100
f 71/79/101 109/80/101 105/87/101 57/65/101
f 109/80/102 110/29/102 106/26/102 105/87/102
f 50/64/103 57/65/103 105/87/103 97/88/103
f 97/88/104 105/87/104 106/26/104 98/21/104
f 50/64/105 97/88/105 103/86/105 55/75/105
f 97/88/106 98/21/106 104/22/106 103/86/106
